<svg width="24" height="24" viewBox="0 0 24 24" fill="none" xmlns="http://www.w3.org/2000/svg">
<path d="M5.25 7.46113V21.0001H18.75V7.46113L12.9495 2.71513C12.6816 2.49605 12.3461 2.37636 12 2.37636C11.6539 2.37636 11.3184 2.49605 11.0505 2.71513L5.25 7.46113ZM13.899 1.55413L19.974 6.52513C20.0602 6.59539 20.1296 6.68392 20.1773 6.78432C20.2251 6.88472 20.2499 6.99447 20.25 7.10563V21.7501C20.25 21.949 20.171 22.1398 20.0303 22.2805C19.8897 22.4211 19.6989 22.5001 19.5 22.5001H4.5C4.30109 22.5001 4.11032 22.4211 3.96967 22.2805C3.82902 22.1398 3.75 21.949 3.75 21.7501V7.10563C3.74993 6.99459 3.77451 6.88491 3.82198 6.78452C3.86945 6.68413 3.93862 6.59554 4.0245 6.52513L10.0995 1.55413C10.6355 1.11558 11.3067 0.875977 11.9992 0.875977C12.6918 0.875977 13.363 1.11558 13.899 1.55413Z" fill="white"/>
<path d="M12 10.5C12.3978 10.5 12.7794 10.342 13.0607 10.0607C13.342 9.77936 13.5 9.39782 13.5 9C13.5 8.60218 13.342 8.22064 13.0607 7.93934C12.7794 7.65804 12.3978 7.5 12 7.5C11.6022 7.5 11.2206 7.65804 10.9393 7.93934C10.658 8.22064 10.5 8.60218 10.5 9C10.5 9.39782 10.658 9.77936 10.9393 10.0607C11.2206 10.342 11.6022 10.5 12 10.5ZM12 12C11.2044 12 10.4413 11.6839 9.87868 11.1213C9.31607 10.5587 9 9.79565 9 9C9 8.20435 9.31607 7.44129 9.87868 6.87868C10.4413 6.31607 11.2044 6 12 6C12.7956 6 13.5587 6.31607 14.1213 6.87868C14.6839 7.44129 15 8.20435 15 9C15 9.79565 14.6839 10.5587 14.1213 11.1213C13.5587 11.6839 12.7956 12 12 12Z" fill="white"/>
</svg>
