<svg width="25" height="24" viewBox="0 0 25 24" fill="none" xmlns="http://www.w3.org/2000/svg">
<g clip-path="url(#clip0_461_452)">
<path d="M0.046875 13.9882C0.22375 13.1107 0.649375 12.3895 1.39062 11.8726C1.91562 11.507 2.4975 11.2988 3.14187 11.3082C3.7175 11.3163 4.29688 11.2501 4.86875 11.3513C5.84 11.5232 6.57375 12.0507 7.07625 12.8926C7.18562 13.0757 7.24 13.0763 7.38812 12.9332C8.505 11.8576 9.83562 11.2926 11.3944 11.3076C12.0794 11.3138 12.7662 11.2582 13.4494 11.3513C14.6794 11.5195 15.7344 12.0495 16.6319 12.9013C16.8406 13.0995 16.8325 13.0976 16.9812 12.8651C17.62 11.8682 18.5181 11.3101 19.7175 11.3101C20.3462 11.3101 20.98 11.2382 21.6037 11.3932C23.02 11.7457 24.0131 13.0026 24.0156 14.4632C24.0187 16.1395 24.0175 17.8157 24.0156 19.492C24.0144 20.3745 23.415 20.9738 22.5312 20.9751C21.2294 20.977 19.9275 20.9801 18.6256 20.9713C18.4338 20.9701 18.3569 21.0276 18.3081 21.2138C18.1012 22.002 17.4794 22.472 16.6631 22.472C13.5681 22.4732 10.4731 22.4732 7.3775 22.472C6.56562 22.472 5.94375 21.9988 5.7375 21.2076C5.6875 21.0151 5.6 20.9707 5.415 20.972C4.1675 20.9795 2.91937 20.9538 1.67312 20.9838C0.86625 21.0032 0.32625 20.6876 0.0475 19.9301V13.9888L0.046875 13.9882ZM12.0044 21.0357C13.5162 21.0357 15.0281 21.0363 16.54 21.0357C16.8231 21.0357 16.9194 20.9601 16.9162 20.7113C16.9 19.3401 16.995 17.9657 16.8744 16.5988C16.7337 15.0026 15.8944 13.8457 14.4575 13.1532C13.2456 12.5688 11.9356 12.6295 10.6706 12.832C8.52937 13.1751 7.1325 14.9257 7.1275 17.0957C7.125 18.2645 7.12687 19.4338 7.1275 20.6026C7.1275 20.977 7.18625 21.0357 7.56187 21.0357C9.0425 21.0357 10.5237 21.0357 12.0044 21.0357ZM22.58 16.9107C22.58 16.1545 22.58 15.3982 22.58 14.642C22.58 14.6263 22.58 14.6107 22.58 14.5951C22.565 13.5751 21.9837 12.9063 20.9756 12.7657C20.5575 12.7076 20.1337 12.7263 19.715 12.7488C18.3006 12.8245 17.7206 14.1388 18.0844 15.2207C18.2625 15.7501 18.33 16.2938 18.3594 16.8495C18.4025 17.6607 18.3681 18.4701 18.3537 19.2795C18.3506 19.4632 18.3919 19.5432 18.5975 19.5413C19.8369 19.5332 21.0762 19.5338 22.3162 19.5407C22.5194 19.542 22.5875 19.477 22.585 19.2713C22.575 18.4838 22.5812 17.697 22.5812 16.9095L22.58 16.9107ZM1.46687 16.9132C1.46687 17.7001 1.4725 18.487 1.46312 19.2738C1.46062 19.4738 1.51312 19.5451 1.72437 19.5438C2.96312 19.5351 4.20187 19.5363 5.44 19.5432C5.63062 19.5445 5.7 19.4895 5.69437 19.292C5.67062 18.4751 5.64687 17.6582 5.68875 16.8401C5.7175 16.2845 5.7775 15.7376 5.97062 15.2145C6.05375 14.9888 6.07562 14.7626 6.065 14.527C6.02687 13.6707 5.56562 13.0201 4.78375 12.8307C4.11312 12.6682 3.41687 12.667 2.74687 12.8313C1.94375 13.0282 1.47625 13.7095 1.46937 14.6001C1.46375 15.3713 1.46812 16.1426 1.46812 16.9138L1.46687 16.9132Z" fill="white"/>
<path d="M12.0236 1.57446C14.2943 1.57446 16.1086 3.38696 16.1093 5.65571C16.1099 7.93759 14.2955 9.74946 12.0105 9.74759C9.74489 9.74571 7.93552 7.92759 7.93677 5.65446C7.93739 3.38696 9.75364 1.57509 12.0236 1.57509V1.57446ZM14.6718 5.66571C14.6261 4.21134 13.5599 3.03446 12.0343 3.02509C10.5468 3.01571 9.39739 4.16446 9.38302 5.66759C9.36927 7.10946 10.5943 8.31071 12.0243 8.30946C13.4555 8.30821 14.6643 7.10071 14.6718 5.66634V5.66571Z" fill="white"/>
<path d="M1.20069 7.13697C1.20382 5.70385 2.35319 4.5676 3.79882 4.56885C5.24757 4.57072 6.38194 5.71822 6.37882 7.17822C6.37507 8.62135 5.22131 9.7526 3.75757 9.74635C2.33069 9.74072 1.19757 8.58447 1.20069 7.13635V7.13697ZM3.78007 6.00885C3.15694 6.01947 2.62444 6.56385 2.64069 7.17322C2.65694 7.7901 3.17756 8.30447 3.78756 8.30697C4.40444 8.30885 4.94257 7.7701 4.93819 7.15385C4.93382 6.53322 4.39257 5.99822 3.78007 6.00885Z" fill="white"/>
<path d="M20.2507 4.56885C21.7051 4.5676 22.8476 5.70885 22.8463 7.1626C22.8457 8.60322 21.7038 9.74572 20.2645 9.74697C18.8113 9.74822 17.6676 8.60572 17.6682 7.15322C17.6688 5.71322 18.8107 4.5701 20.2501 4.56947L20.2507 4.56885ZM20.247 8.30697C20.8595 8.31822 21.4013 7.78322 21.4057 7.1626C21.4101 6.55572 20.8995 6.03322 20.2788 6.00947C19.6732 5.98635 19.1257 6.51572 19.1082 7.14197C19.0913 7.75072 19.6232 8.29572 20.247 8.30697Z" fill="white"/>
</g>
<defs>
<clipPath id="clip0_461_452">
<rect width="24.0175" height="24" fill="white"/>
</clipPath>
</defs>
</svg>
