<svg width="17" height="21" viewBox="0 0 17 21" fill="none" xmlns="http://www.w3.org/2000/svg">
<path d="M7 10H9.1L15.3 3.8L13.2 1.7L7 7.9V10ZM16 3.1L16.7 2.4C16.9 2.2 17 1.96667 17 1.7C17 1.43333 16.9 1.2 16.7 1L16 0.3C15.8 0.0999999 15.5667 0 15.3 0C15.0333 0 14.8 0.0999999 14.6 0.3L13.9 1L16 3.1ZM8 21C5.31667 18.7167 3.31267 16.5957 1.988 14.637C0.662667 12.679 0 10.8667 0 9.2C0 6.7 0.804333 4.70833 2.413 3.225C4.021 1.74167 5.88333 1 8 1C8.45 1 8.896 1.03733 9.338 1.112C9.77933 1.18733 10.2083 1.29167 10.625 1.425L9 3.075C8.83333 3.04167 8.67067 3.02067 8.512 3.012C8.354 3.004 8.18333 3 8 3C6.31667 3 4.89567 3.579 3.737 4.737C2.579 5.89567 2 7.38333 2 9.2C2 10.3833 2.49167 11.7373 3.475 13.262C4.45833 14.7873 5.96667 16.4833 8 18.35C10.0333 16.4833 11.5417 14.7873 12.525 13.262C13.5083 11.7373 14 10.3833 14 9.2C14 9 13.9917 8.804 13.975 8.612C13.9583 8.42067 13.9333 8.23333 13.9 8.05L15.55 6.4C15.7 6.83333 15.8127 7.28333 15.888 7.75C15.9627 8.21667 16 8.7 16 9.2C16 10.8667 15.3377 12.679 14.013 14.637C12.6877 16.5957 10.6833 18.7167 8 21Z" fill="white"/>
</svg>
