<svg width="24" height="24" viewBox="0 0 24 24" fill="none" xmlns="http://www.w3.org/2000/svg">
<g clip-path="url(#clip0_462_457)">
<path d="M14.2095 0.046875C14.3993 0.816798 14.5947 1.5861 14.7752 2.35852C14.8164 2.53523 14.8757 2.66511 15.0668 2.70008C15.0893 2.70445 15.113 2.71257 15.1317 2.72506C15.6269 3.07162 16.0596 2.94736 16.5149 2.60642C16.9432 2.28608 17.4272 2.04006 17.8786 1.74907C18.0272 1.65291 18.1253 1.64667 18.2583 1.78092C19.1618 2.69509 20.0704 3.60363 20.9845 4.50718C21.1169 4.63769 21.1188 4.73698 21.0232 4.88809C20.6324 5.5069 20.2577 6.13632 19.8656 6.75389C19.7744 6.89751 19.7594 7.01552 19.8431 7.16039C19.8974 7.25406 19.953 7.35521 19.9711 7.46012C20.0416 7.86475 20.3133 7.99338 20.6817 8.06519C21.2924 8.18446 21.8931 8.35243 22.5007 8.48668C22.6867 8.52789 22.761 8.61282 22.7604 8.80202C22.756 10.0796 22.7567 11.3566 22.7604 12.6342C22.7604 12.7996 22.7048 12.8852 22.5331 12.9245C21.82 13.0862 21.1107 13.2648 20.3976 13.4278C20.2302 13.4659 20.1141 13.5327 20.0704 13.7088C20.046 13.8062 20.0148 13.9092 19.9586 13.9898C19.7169 14.3382 19.8125 14.6311 20.0373 14.9577C20.3907 15.4697 20.6942 16.0161 21.027 16.5425C21.1075 16.6698 21.1038 16.7566 20.9983 16.8678C20.4369 17.4623 19.8855 18.0661 19.3229 18.6593C19.2068 18.7817 19.1749 18.8872 19.2268 19.0521C19.4247 19.6815 19.4784 20.334 19.4865 20.9884C19.4978 21.8838 19.4903 22.7799 19.489 23.6753C19.489 23.9919 19.4847 23.995 19.1818 23.995C14.4617 23.995 9.74228 23.9932 5.02221 24.0007C4.77806 24.0007 4.71686 23.9157 4.71999 23.6909C4.73685 22.5701 4.69376 21.448 4.7562 20.3278C4.7818 19.8676 4.86673 19.4155 5.00785 18.9771C5.0628 18.8073 5.02221 18.7067 4.89982 18.5925C4.30911 18.0386 3.72901 17.4735 3.13705 16.9202C3.00343 16.7954 2.99031 16.6992 3.08897 16.5431C3.48486 15.918 3.86452 15.283 4.25791 14.6567C4.34158 14.5237 4.35657 14.4138 4.28226 14.2702C4.1861 14.0841 4.10555 13.8874 4.04185 13.6882C3.9919 13.5321 3.89324 13.4684 3.74525 13.434C3.02528 13.2661 2.30781 13.0875 1.58659 12.9251C1.41425 12.8864 1.35743 12.8021 1.35743 12.6366C1.36055 11.3591 1.36117 10.0821 1.35743 8.80452C1.3568 8.61532 1.43173 8.53039 1.61719 8.48856C2.3228 8.32933 3.02466 8.14949 3.73026 7.99026C3.90448 7.95092 3.99939 7.86787 4.05434 7.70177C4.11491 7.51757 4.18547 7.33336 4.27664 7.16289C4.36281 7.00241 4.33346 6.8819 4.24042 6.73515C3.85265 6.12321 3.48174 5.50128 3.09522 4.88871C3.0003 4.73822 3.00155 4.63832 3.13393 4.50781C4.04747 3.60426 4.95602 2.69509 5.8602 1.78217C5.97884 1.66228 6.07063 1.64042 6.22049 1.73534C6.84555 2.13123 7.48059 2.51088 8.10627 2.90552C8.23928 2.98982 8.35355 3.01604 8.4928 2.93487C8.57272 2.88804 8.65952 2.83933 8.74881 2.82372C9.20527 2.74504 9.35076 2.43845 9.43194 2.01883C9.56057 1.35568 9.74728 0.703776 9.90901 0.046875C11.3427 0.046875 12.7758 0.046875 14.2095 0.046875ZM9.12597 14.6099C6.90986 12.6997 6.86428 9.66998 8.59395 7.74423C10.3236 5.81786 13.2416 5.64802 15.2342 7.3702C16.1908 8.19632 16.7272 9.2666 16.824 10.523C16.9501 12.1621 16.3369 13.5165 15.0849 14.6099C15.5258 14.7797 15.9279 14.9639 16.3063 15.1956C17.143 15.7076 17.8393 16.367 18.3713 17.1925C18.4737 17.3511 18.5399 17.3586 18.6592 17.2169C18.8146 17.0326 18.9795 16.8553 19.1531 16.6873C19.273 16.5712 19.263 16.4788 19.1774 16.3445C18.8352 15.8056 18.5087 15.2568 18.1677 14.7166C18.0797 14.5774 18.0672 14.4575 18.1328 14.3045C18.3938 13.6963 18.6504 13.0862 18.8939 12.4706C18.9601 12.3032 19.0625 12.2308 19.228 12.1933C19.8275 12.0566 20.4232 11.9042 21.0232 11.7699C21.1975 11.7306 21.2705 11.6569 21.2668 11.4715C21.2568 10.9657 21.2562 10.4586 21.2668 9.95285C21.2711 9.76926 21.2037 9.69121 21.0295 9.65187C20.4219 9.51512 19.8187 9.36151 19.2118 9.22351C19.0513 9.18729 18.9595 9.10924 18.8977 8.95376C18.6523 8.33932 18.3975 7.728 18.1359 7.12043C18.0659 6.9587 18.0828 6.83319 18.1752 6.68707C18.5093 6.1613 18.8271 5.62492 19.1618 5.09977C19.2561 4.95178 19.2393 4.85624 19.1169 4.7376C18.7584 4.39104 18.4031 4.04073 18.0603 3.67919C17.923 3.53432 17.8143 3.51372 17.6426 3.62424C17.1249 3.95644 16.5935 4.2674 16.0753 4.59898C15.926 4.69451 15.8011 4.69951 15.6419 4.63082C15.0481 4.37543 14.4511 4.12815 13.851 3.889C13.6743 3.81906 13.5788 3.71853 13.5369 3.52808C13.4096 2.94299 13.2547 2.36351 13.1292 1.77717C13.0855 1.57236 13.0043 1.49243 12.7883 1.4993C12.3056 1.51429 11.8223 1.51304 11.3396 1.4993C11.1316 1.49368 11.0361 1.55612 10.9911 1.76781C10.8638 2.36913 10.7101 2.96484 10.5722 3.56367C10.5378 3.71291 10.4672 3.8072 10.3199 3.86714C9.6917 4.12004 9.06602 4.38105 8.44284 4.64518C8.30672 4.70326 8.19869 4.69264 8.07255 4.61334C7.53242 4.27302 6.9848 3.94457 6.44341 3.60488C6.30979 3.52121 6.21487 3.51996 6.09873 3.63985C5.73593 4.01513 5.36627 4.38355 4.99224 4.74759C4.87672 4.85999 4.86485 4.9524 4.95227 5.09103C5.29384 5.63054 5.62166 6.17879 5.96073 6.71954C6.03816 6.84256 6.05564 6.95121 5.99632 7.08983C5.72969 7.71239 5.46743 8.33682 5.21453 8.96562C5.15147 9.12298 5.0553 9.19166 4.89483 9.22788C4.28726 9.36401 3.68405 9.51824 3.07648 9.65437C2.90851 9.69183 2.84794 9.76864 2.85044 9.94036C2.85918 10.4543 2.85981 10.9688 2.85044 11.4827C2.84732 11.6588 2.91913 11.7294 3.08273 11.7662C3.68967 11.9029 4.29412 12.0541 4.90107 12.1921C5.05968 12.2283 5.15521 12.302 5.21766 12.4587C5.46306 13.0731 5.71595 13.6851 5.98009 14.292C6.05502 14.4644 6.03191 14.5924 5.9345 14.7447C5.6073 15.2568 5.30008 15.7807 4.97226 16.2921C4.86673 16.4569 4.88109 16.5643 5.02783 16.6892C5.20579 16.8403 5.37439 17.0039 5.53112 17.1769C5.68098 17.3417 5.76341 17.3105 5.87955 17.1338C6.37785 16.3739 7.02289 15.7601 7.78719 15.2705C8.20056 15.0051 8.64453 14.8003 9.12472 14.6105L9.12597 14.6099ZM12.0826 22.5226C13.9597 22.5226 15.8367 22.5201 17.7144 22.5264C17.9273 22.527 18.0029 22.4614 17.9973 22.246C17.9841 21.7246 17.9985 21.202 17.9885 20.6806C17.9436 18.3827 16.325 16.3732 14.0808 15.8606C12.9525 15.6027 11.801 15.6683 10.6633 15.7694C8.49654 15.9611 6.56455 17.8669 6.27607 20.0287C6.1799 20.7505 6.23673 21.4755 6.22174 22.1986C6.21487 22.5214 6.22174 22.522 6.5452 22.5226C8.39101 22.5226 10.2375 22.5226 12.0833 22.5226H12.0826ZM12.1058 14.1646C13.916 14.1646 15.364 12.7247 15.3653 10.9226C15.3665 9.11423 13.9278 7.6718 12.1189 7.66743C10.2974 7.66306 8.84622 9.10612 8.84685 10.9213C8.8481 12.7234 10.2955 14.164 12.1058 14.1646Z" fill="white"/>
</g>
<defs>
<clipPath id="clip0_462_457">
<rect width="23.9781" height="24" fill="white"/>
</clipPath>
</defs>
</svg>
