<svg width="20" height="20" viewBox="0 0 20 20" fill="none" xmlns="http://www.w3.org/2000/svg">
<path d="M10.8048 1.04432C12.4949 1.10109 14.0975 1.15214 15.7001 1.20891C16.5173 1.23755 17.3345 1.2688 18.1512 1.31359C18.5308 1.33443 18.7444 1.55995 18.7657 1.93755C18.797 2.50109 18.8194 3.06568 18.8387 3.62974C18.8704 4.53807 18.8944 5.44641 18.9256 6.35474C18.9616 7.40578 18.9975 8.45682 19.0413 9.50734C19.0522 9.76724 18.9647 9.96672 18.7819 10.1495C15.9913 12.9349 13.2043 15.7245 10.4152 18.5115C9.6397 19.2865 8.63814 19.2829 7.8621 18.5068C5.77199 16.4172 3.68241 14.3271 1.59282 12.2365C0.787617 11.4308 0.785533 10.4443 1.58814 9.64172C4.29335 6.93599 7.00324 4.23547 9.6996 1.52036C10.0433 1.17401 10.3814 0.917761 10.8053 1.04432H10.8048ZM11.0475 6.9787C10.1834 7.01255 9.51626 7.37661 9.17095 8.19224C8.83241 8.99224 8.96053 9.74172 9.53501 10.4053C9.60272 10.4834 9.67407 10.5615 9.7272 10.6495C9.90637 10.9454 9.87251 11.3516 9.6548 11.6183C9.42928 11.8938 9.03814 12.0021 8.70376 11.8818C8.35168 11.7547 8.14543 11.4646 8.13397 11.1006C8.12564 10.8349 8.23918 10.6287 8.40585 10.4339C8.58085 10.2287 8.60168 9.96307 8.47095 9.74432C8.33814 9.52193 8.13501 9.42557 7.87876 9.45057C7.66835 9.47089 7.52355 9.60266 7.40116 9.75839C6.89126 10.4068 6.79022 11.1167 7.10064 11.8803C7.14543 11.9902 7.14387 12.062 7.06678 12.1589C6.8746 12.4006 6.90168 12.7495 7.11105 12.9594C7.31835 13.1667 7.6548 13.1969 7.8923 13.0047C8.00585 12.9126 8.09283 12.9261 8.20845 12.9756C8.60897 13.1474 9.0246 13.1761 9.44907 13.087C10.4819 12.8698 11.1913 11.8391 11.0345 10.8021C10.9647 10.3417 10.7663 9.95422 10.448 9.6188C10.1657 9.32036 10.1173 8.90734 10.3137 8.57661C10.571 8.14328 11.1548 8.0287 11.5699 8.32974C11.9741 8.62297 12.022 9.19589 11.6762 9.60214C11.4241 9.89849 11.4282 10.2532 11.6866 10.4891C11.9381 10.7198 12.3137 10.6933 12.5689 10.4068C13.1413 9.76411 13.2595 9.03234 12.9538 8.23339C12.9079 8.11255 12.8996 8.02714 12.9814 7.91464C13.1564 7.67297 13.1199 7.34641 12.9183 7.14797C12.7147 6.94797 12.3736 6.9188 12.1319 7.09849C12.034 7.17141 11.9574 7.17661 11.8496 7.1313C11.5954 7.02505 11.3293 6.96932 11.0486 6.97974L11.0475 6.9787ZM15.8647 5.13964C16.4027 5.1438 16.8272 4.73234 16.8308 4.2037C16.834 3.68391 16.4147 3.2537 15.8991 3.24797C15.3647 3.24172 14.9402 3.65786 14.9387 4.18964C14.9371 4.72557 15.3366 5.13547 15.8647 5.13964V5.13964Z" fill="white"/>
</svg>
