<svg width="20" height="20" viewBox="0 0 20 20" fill="none" xmlns="http://www.w3.org/2000/svg">
<g clip-path="url(#clip0_428_459)">
<path d="M9.88159 19.9965C6.65255 19.9965 3.42351 19.9954 0.194467 20.0001C0.061418 20.0001 0.0349121 19.9741 0.0349121 19.8406C0.0390699 13.6938 0.0385502 7.54702 0.0385502 1.40025C0.144574 1.1934 0.315043 1.07179 0.52813 0.982916C1.77806 0.460594 3.07841 0.151359 4.42813 0.0749593C6.28667 -0.0300249 8.08179 0.266737 9.8026 0.992271C10.1383 1.13416 10.2859 1.35764 10.2859 1.72456C10.2807 7.57821 10.2813 13.4313 10.2859 19.285C10.2859 19.6124 10.1758 19.8494 9.88211 19.996L9.88159 19.9965ZM5.13548 3.24059C4.34446 3.24059 3.55344 3.23852 2.76294 3.24163C2.36639 3.24319 2.15175 3.45888 2.15071 3.85803C2.14811 4.86265 2.14811 5.8678 2.15071 6.87242C2.15175 7.27781 2.37159 7.49349 2.78061 7.49401C4.35589 7.49557 5.93118 7.49505 7.50698 7.49401C7.94874 7.49401 8.15923 7.28041 8.16027 6.835C8.16183 5.85584 8.16183 4.8772 8.16027 3.89805C8.15975 3.44641 7.95706 3.24163 7.50958 3.24059C6.71856 3.23904 5.92754 3.24059 5.13704 3.24059H5.13548ZM4.59185 13.6397C4.754 13.6397 4.91615 13.6392 5.07779 13.6397C5.33817 13.6408 5.34129 13.647 5.20668 13.8804C4.95409 14.318 4.69995 14.7556 4.44892 15.1942C4.37772 15.319 4.31847 15.4489 4.34498 15.5996C4.38968 15.8538 4.57054 16.0409 4.81377 16.0845C5.03985 16.1251 5.26593 16.0118 5.40833 15.7675C5.86205 14.9895 6.31421 14.2099 6.76117 13.4277C7.04026 12.9397 6.78508 12.5088 6.21754 12.5036C5.887 12.5005 5.55645 12.5036 5.22591 12.5026C4.95565 12.5021 4.94838 12.4886 5.08039 12.251C5.30647 11.8431 5.53982 11.4387 5.75707 11.0255C5.95196 10.655 5.7659 10.2688 5.36624 10.1846C5.13496 10.1358 4.90576 10.261 4.75296 10.5334C4.34446 11.263 3.93856 11.9938 3.53525 12.7261C3.27591 13.1975 3.52589 13.6252 4.06641 13.6392C4.24155 13.6439 4.41618 13.6397 4.59133 13.6403L4.59185 13.6397Z" fill="white"/>
<path d="M16.9108 11.1262C16.9108 9.99844 16.9097 8.87012 16.9123 7.74232C16.9123 7.60927 16.8941 7.51676 16.7434 7.45959C15.6551 7.04537 15.0808 6.22213 15.0569 5.04963C15.0481 4.60267 15.0517 4.15519 15.0564 3.70771C15.0611 3.24983 15.2113 3.06585 15.6593 2.97126C15.7778 2.94631 15.8214 2.88706 15.8194 2.77065C15.8157 2.55028 15.8157 2.32992 15.8194 2.10956C15.8261 1.75407 16.0751 1.50356 16.417 1.50304C16.759 1.50304 17.0074 1.75199 17.0147 2.10852C17.0194 2.32888 17.0194 2.54924 17.0158 2.76961C17.0137 2.9011 17.0724 2.95982 17.2023 2.95879C17.4227 2.95671 17.6431 2.95775 17.8634 2.95775C17.9845 2.95775 18.0386 2.89798 18.037 2.77688C18.0344 2.55652 18.0334 2.33616 18.0386 2.11579C18.0469 1.77278 18.2777 1.52175 18.5942 1.50408C18.933 1.48537 19.1981 1.69638 19.2371 2.04251C19.262 2.26703 19.2579 2.49519 19.2547 2.72179C19.2527 2.87563 19.302 2.95567 19.4663 2.98529C19.79 3.0435 19.9678 3.26906 19.9704 3.6022C19.974 4.11413 19.9735 4.62658 19.9709 5.13851C19.9662 6.1582 19.3634 7.05681 18.4112 7.41178C18.1815 7.49753 18.1295 7.61343 18.1306 7.83639C18.1373 10.0083 18.1352 12.1797 18.1342 14.3516C18.1342 15.0294 17.9528 15.652 17.4991 16.1644C16.7507 17.009 15.8074 17.3156 14.7253 16.9976C13.6438 16.6795 13.0191 15.9134 12.8356 14.7991C12.8107 14.6474 12.8216 14.4889 12.8216 14.3329C12.8206 13.3086 12.8216 12.2842 12.8206 11.2598C12.82 10.8607 12.7369 10.4865 12.4651 10.1762C12.2395 9.9184 11.9609 9.74429 11.6195 9.70168C11.4371 9.67933 11.3768 9.60085 11.3856 9.42466C11.3965 9.19807 11.3872 8.97095 11.3882 8.74435C11.3892 8.46681 11.4194 8.43615 11.6917 8.47565C12.5612 8.60142 13.227 9.03903 13.6745 9.79575C13.9099 10.1939 14.0232 10.6283 14.0216 11.094C14.0185 12.1964 14.017 13.2982 14.0216 14.4005C14.0253 15.2544 14.6614 15.8999 15.4831 15.8968C16.2544 15.8937 16.903 15.2622 16.9082 14.4899C16.916 13.3683 16.9103 12.2468 16.9103 11.1252H16.9113L16.9108 11.1262Z" fill="white"/>
<path d="M5.15472 4.35159C5.69939 4.35159 6.24354 4.35679 6.78821 4.34847C6.97583 4.34588 7.05743 4.40201 7.05327 4.60262C7.04287 5.11455 7.04495 5.62647 7.05223 6.1384C7.05483 6.31407 6.9883 6.38163 6.81471 6.38059C5.70614 6.37747 4.59809 6.37747 3.48952 6.38059C3.32997 6.38059 3.25357 6.33018 3.25617 6.15607C3.26344 5.63115 3.26396 5.10623 3.25617 4.58131C3.25357 4.39733 3.33413 4.34743 3.502 4.34899C4.0529 4.35419 4.60381 4.35107 5.15472 4.35107V4.35159Z" fill="white"/>
</g>
<defs>
<clipPath id="clip0_428_459">
<rect width="19.973" height="20" fill="white"/>
</clipPath>
</defs>
</svg>
