<svg width="21" height="20" viewBox="0 0 21 20" fill="none" xmlns="http://www.w3.org/2000/svg">
<g clip-path="url(#clip0_428_463)">
<path d="M0.0390625 9.162C0.116667 8.59013 0.191667 8.01825 0.339583 7.45836C0.807812 5.68492 1.68125 4.14378 2.97448 2.84273C3.35885 2.45628 3.95885 2.59534 4.08594 3.09534C4.15312 3.3594 4.0625 3.5745 3.87448 3.76617C3.21458 4.43909 2.66719 5.19325 2.2474 6.03857C1.68125 7.17711 1.3724 8.37867 1.32448 9.65159C1.23958 11.9172 1.92031 13.9224 3.3401 15.6818C3.51094 15.8938 3.70156 16.0906 3.88698 16.2901C4.16042 16.5839 4.17917 16.9771 3.92604 17.2318C3.65521 17.5047 3.26667 17.4953 2.97396 17.1979C1.43594 15.6365 0.488021 13.7745 0.142708 11.6089C0.104167 11.3657 0.0734375 11.1214 0.0390625 10.8782V9.16253V9.162Z" fill="white"/>
<path d="M7.53332 11.0823C7.20832 11.0823 6.88384 11.0792 6.55884 11.0828C6.27499 11.086 6.05051 10.9834 5.91405 10.7276C5.77499 10.4667 5.84113 10.2261 6.00259 9.99795C7.27134 8.20628 8.54009 6.41409 9.80832 4.6219C10.0297 4.30888 10.2489 3.99482 10.4713 3.68232C10.6906 3.37451 10.976 3.27347 11.2792 3.39326C11.5739 3.50993 11.7177 3.77399 11.6729 4.13597C11.5156 5.4042 11.3583 6.67243 11.1927 7.93961C11.1713 8.10159 11.214 8.13909 11.3698 8.13753C12.0713 8.13076 12.7729 8.14013 13.4745 8.1318C13.7609 8.12868 13.9859 8.22034 14.1224 8.47659C14.2651 8.74378 14.1979 8.98909 14.0265 9.2219C12.8948 10.7604 11.7646 12.2995 10.6338 13.8391C10.0109 14.687 9.38905 15.536 8.76353 16.3823C8.5328 16.6943 8.21769 16.7771 7.91197 16.6167C7.65884 16.4839 7.51457 16.2125 7.58176 15.9328C7.85884 14.7844 8.1453 13.6386 8.42811 12.4912C8.52759 12.0881 8.62134 11.6828 8.73124 11.2823C8.77811 11.1125 8.72134 11.0771 8.56613 11.0802C8.22186 11.087 7.87759 11.0823 7.53332 11.0823V11.0823Z" fill="white"/>
<path d="M20.0208 10.0188C19.9864 12.7938 19.0203 15.1881 17.0797 17.1818C16.6885 17.5839 16.0864 17.4542 15.9547 16.9464C15.8859 16.6824 15.9755 16.4673 16.1641 16.2756C16.9614 15.4657 17.5864 14.5386 18.0286 13.4912C18.4443 12.5063 18.6734 11.4808 18.713 10.4105C18.8078 7.83288 17.9463 5.62402 16.1677 3.76673C15.9719 3.56204 15.8802 3.33757 15.9651 3.05944C16.0437 2.80215 16.2323 2.66569 16.4875 2.62038C16.7271 2.57819 16.913 2.68392 17.0776 2.85059C18.1573 3.94642 18.9562 5.21673 19.4594 6.67142C19.8344 7.75475 20.0292 8.86829 20.0208 10.0188V10.0188Z" fill="white"/>
<path d="M2.51764 10.0094C2.53535 7.94324 3.25827 6.16043 4.6791 4.65939C4.79681 4.53543 4.92129 4.42397 5.09889 4.3948C5.39525 4.34637 5.65931 4.4672 5.79317 4.71355C5.9265 4.95939 5.89056 5.26355 5.67598 5.48699C5.32389 5.85366 5.00306 6.24376 4.73952 6.67918C4.19577 7.57866 3.88327 8.54949 3.82389 9.6021C3.71764 11.5016 4.32129 13.1365 5.639 14.5068C5.84212 14.7182 5.92285 14.9578 5.83014 15.236C5.74629 15.487 5.55514 15.6229 5.29369 15.6552C5.05306 15.6854 4.86817 15.5771 4.70775 15.4099C3.6791 14.3406 2.9916 13.088 2.68223 11.6339C2.56869 11.0995 2.50098 10.5589 2.51764 10.0089V10.0094Z" fill="white"/>
<path d="M17.5254 10.1369C17.5051 12.0937 16.7786 13.8827 15.3515 15.3895C15.1931 15.5567 15.0129 15.6786 14.7728 15.6593C14.5202 15.639 14.3239 15.5171 14.226 15.2796C14.1249 15.0332 14.1551 14.7931 14.3317 14.5858C14.4874 14.403 14.6609 14.2348 14.8109 14.0473C15.6692 12.9759 16.1473 11.7577 16.2161 10.3817C16.3093 8.5098 15.7067 6.89834 14.4124 5.54626C14.2046 5.32959 14.1114 5.08897 14.2077 4.80199C14.3572 4.35668 14.9197 4.23897 15.277 4.57803C15.5556 4.84261 15.7984 5.14001 16.0254 5.44939C17.0218 6.80824 17.5145 8.33272 17.5254 10.1369V10.1369Z" fill="white"/>
</g>
<defs>
<clipPath id="clip0_428_463">
<rect width="20.0208" height="20" fill="white"/>
</clipPath>
</defs>
</svg>
