<svg width="19" height="22" viewBox="0 0 19 22" fill="none" xmlns="http://www.w3.org/2000/svg">
<path d="M14 8H16V5H19V3H16V0H14V3H11V5H14V8ZM8 12C8.55 12 9.021 11.804 9.413 11.412C9.80433 11.0207 10 10.55 10 10C10 9.45 9.80433 8.979 9.413 8.587C9.021 8.19567 8.55 8 8 8C7.45 8 6.97933 8.19567 6.588 8.587C6.196 8.979 6 9.45 6 10C6 10.55 6.196 11.0207 6.588 11.412C6.97933 11.804 7.45 12 8 12ZM8 22C5.31667 19.7167 3.31267 17.5957 1.988 15.637C0.662667 13.679 0 11.8667 0 10.2C0 7.7 0.804333 5.70833 2.413 4.225C4.021 2.74167 5.88333 2 8 2C8.16667 2 8.33333 2.004 8.5 2.012C8.66667 2.02067 8.83333 2.03333 9 2.05V4.075C8.83333 4.04167 8.67067 4.02067 8.512 4.012C8.354 4.004 8.18333 4 8 4C6.31667 4 4.89567 4.579 3.737 5.737C2.579 6.89567 2 8.38333 2 10.2C2 11.3833 2.49167 12.7373 3.475 14.262C4.45833 15.7873 5.96667 17.4833 8 19.35C10.0333 17.4833 11.5417 15.7873 12.525 14.262C13.5083 12.7373 14 11.3833 14 10.2V10H16V10.2C16 11.8667 15.3377 13.679 14.013 15.637C12.6877 17.5957 10.6833 19.7167 8 22Z" fill="white"/>
</svg>
