<svg width="21" height="22" viewBox="0 0 21 22" fill="none" xmlns="http://www.w3.org/2000/svg">
<path d="M18.9042 1.5H13.1419C12.9627 1.49987 12.7909 1.57065 12.6638 1.69688L1.14375 13.2141C0.891571 13.4675 0.75 13.8105 0.75 14.168C0.75 14.5255 0.891571 14.8685 1.14375 15.1219L6.62813 20.6063C6.88163 20.8585 7.22468 21 7.58227 21C7.93986 21 8.28291 20.8585 8.53641 20.6063L20.0531 9.09375C20.1794 8.96665 20.2501 8.79476 20.25 8.61563V2.85C20.2509 2.67283 20.2167 2.49724 20.1494 2.33333C20.0821 2.16943 19.9831 2.02045 19.858 1.89497C19.7329 1.76949 19.5843 1.67 19.4206 1.60221C19.2569 1.53443 19.0814 1.49969 18.9042 1.5V1.5Z" stroke="white" stroke-width="1.5" stroke-linecap="round" stroke-linejoin="round"/>
</svg>
