<svg width="125" height="94" viewBox="0 0 125 94" fill="none" xmlns="http://www.w3.org/2000/svg">
<g clip-path="url(#clip0_63_2406)">
<path d="M125 82.6073H0V82.6704H125V82.6073Z" fill="#EBEBEB"/>
<path d="M34.415 84.3253H26.135V84.3884H34.415V84.3253Z" fill="#EBEBEB"/>
<path d="M52.9725 86.6361H42.785V86.6992H52.9725V86.6361Z" fill="#EBEBEB"/>
<path d="M25.885 85.844H13.115V85.9071H25.885V85.844Z" fill="#EBEBEB"/>
<path d="M112.475 84.7491H89.1899V84.8122H112.475V84.7491Z" fill="#EBEBEB"/>
<path d="M86.9649 84.7491H85.3824V84.8122H86.9649V84.7491Z" fill="#EBEBEB"/>
<path d="M79.86 85.8137H69.3025V85.8768H79.86V85.8137Z" fill="#EBEBEB"/>
<path d="M59.2525 71.3558H10.9775C10.19 71.3558 9.54999 70.71 9.54999 69.9154V1.44049C9.54999 0.645823 10.19 0 10.9775 0H59.2525C60.04 0 60.68 0.645823 60.68 1.44049V69.9154C60.68 70.71 60.04 71.3558 59.2525 71.3558ZM10.9775 0.0630686C10.225 0.0630686 9.61249 0.681141 9.61249 1.44049V69.9154C9.61249 70.6747 10.225 71.2928 10.9775 71.2928H59.2525C60.005 71.2928 60.6175 70.6747 60.6175 69.9154V1.44049C60.6175 0.681141 60.005 0.0630686 59.2525 0.0630686H10.9775Z" fill="#EBEBEB"/>
<path d="M113.328 71.3558H65.0525C64.265 71.3558 63.625 70.71 63.625 69.9154V1.44049C63.625 0.645823 64.265 0 65.0525 0H113.328C114.115 0 114.755 0.645823 114.755 1.44049V69.9154C114.755 70.71 114.115 71.3558 113.328 71.3558ZM65.0525 0.0630686C64.3 0.0630686 63.6875 0.681141 63.6875 1.44049V69.9154C63.6875 70.6747 64.3 71.2928 65.0525 71.2928H113.328C114.08 71.2928 114.693 70.6747 114.693 69.9154V1.44049C114.693 0.681141 114.08 0.0630686 113.328 0.0630686H65.0525Z" fill="#EBEBEB"/>
<path d="M48.1875 82.6073H44.1675V21.7083H46.4175L48.1875 82.6073Z" fill="#E6E6E6"/>
<path d="M46.0525 23.8097H42.2799C41.1349 23.8097 40.1974 22.8637 40.1974 21.7083C40.1974 20.5528 41.1349 19.6068 42.2799 19.6068H46.0525C47.1975 19.6068 48.1349 20.5528 48.1349 21.7083C48.1349 22.8637 47.1975 23.8097 46.0525 23.8097Z" fill="#E6E6E6"/>
<path d="M41.8925 23.9938C42.9998 23.9938 43.8974 22.9841 43.8974 21.7385C43.8974 20.4929 42.9998 19.4832 41.8925 19.4832C40.7851 19.4832 39.8875 20.4929 39.8875 21.7385C39.8875 22.9841 40.7851 23.9938 41.8925 23.9938Z" fill="#F5F5F5"/>
<path d="M41.8925 21.7385L24.95 4.3114L34.895 19.4958L41.8925 21.7385Z" fill="#F5F5F5"/>
<path d="M41.8925 21.7385L35.4075 45.2556L43.4675 28.9738L41.8925 21.7385Z" fill="#F5F5F5"/>
<path d="M41.8925 21.7385L65.3175 15.6461L47.315 16.7435L41.8925 21.7385Z" fill="#F5F5F5"/>
<path d="M83.3425 82.6074H79.9575V26.224H81.8525L83.3425 82.6074Z" fill="#E6E6E6"/>
<path d="M81.5449 27.9925H78.3699C77.4049 27.9925 76.6174 27.1953 76.6174 26.224C76.6174 25.2502 77.4074 24.4556 78.3699 24.4556H81.5449C82.5099 24.4556 83.2974 25.2528 83.2974 26.224C83.2974 27.1978 82.5074 27.9925 81.5449 27.9925Z" fill="#E6E6E6"/>
<path d="M78.0425 28.1463C78.9745 28.1463 79.73 27.2969 79.73 26.2492C79.73 25.2014 78.9745 24.3521 78.0425 24.3521C77.1105 24.3521 76.355 25.2014 76.355 26.2492C76.355 27.2969 77.1105 28.1463 78.0425 28.1463Z" fill="#F5F5F5"/>
<path d="M78.0424 26.2492L86.5249 7.5708L77.6849 20.0231L78.0424 26.2492Z" fill="#F5F5F5"/>
<path d="M78.0425 26.2491L57.7725 28.174L72.88 29.6725L78.0425 26.2491Z" fill="#F5F5F5"/>
<path d="M78.0425 26.2491L89.8325 43.0002L83.565 29.0469L78.0425 26.2491Z" fill="#F5F5F5"/>
<path d="M68.2649 72.1582C68.2649 72.1582 56.0949 66.0607 68.8599 58.7599C81.6274 51.4591 84.2649 64.3427 84.2649 64.3427C84.2649 64.3427 86.3074 52.4051 96.8599 58.331C105.005 62.9048 103.367 68.5759 102.195 70.9271C103.442 69.2015 106.58 66.4089 112.435 70.0113C120.392 74.9055 111.342 82.6049 111.342 82.6049H63.2874C57.1599 72.8267 68.2649 72.1582 68.2649 72.1582Z" fill="#E6E6E6"/>
<path d="M66.74 68.9669C66.74 68.9669 81.825 61.0051 66.0025 51.4767C50.18 41.9458 46.91 58.7649 46.91 58.7649C46.91 58.7649 44.3775 43.1794 31.3 50.9166C21.2075 56.8855 23.235 64.2897 24.69 67.3624C23.1425 65.1096 19.255 61.4642 11.9975 66.1666C2.13497 72.5567 13.3525 82.6099 13.3525 82.6099H72.9125C80.505 69.8448 66.7425 68.9694 66.7425 68.9694L66.74 68.9669Z" fill="#F0F0F0"/>
<path d="M30.4025 23.5121C29.7225 22.1296 28.4025 21.1458 27.05 21.1458C26.2 21.1458 25.4925 21.5317 25.03 22.1624C24.5925 21.8042 24.075 21.5872 23.55 21.5872C22.625 21.5872 21.9475 22.2532 21.785 23.1917C21.355 22.9823 20.8925 22.8537 20.4225 22.8335C19.5 22.7906 18.77 23.174 18.395 23.7946C18.2225 23.6912 18.025 23.6256 17.825 23.6155C17.2925 23.5903 16.9475 23.9763 17.0525 24.4758C17.06 24.506 17.0675 24.5363 17.075 24.5666H32.035C32.07 24.0772 31.06 23.5323 30.4 23.507L30.4025 23.5121Z" fill="#E6E6E6"/>
<path d="M108.51 18.8575C107.83 17.4751 106.51 16.4912 105.158 16.4912C104.308 16.4912 103.6 16.8772 103.138 17.5079C102.7 17.1496 102.183 16.9327 101.658 16.9327C100.733 16.9327 100.055 17.5987 99.8925 18.5372C99.4625 18.3278 99 18.1991 98.53 18.1789C97.6075 18.136 96.8775 18.5195 96.5025 19.1401C96.33 19.0367 96.1325 18.9711 95.9325 18.961C95.4 18.9358 95.0551 19.3217 95.1601 19.8212C95.1676 19.8515 95.175 19.8818 95.1825 19.9121H110.143C110.178 19.4226 109.168 18.8777 108.508 18.8525L108.51 18.8575Z" fill="#F5F5F5"/>
<path d="M71.79 38.2221C71.715 38.2145 71.645 38.2095 71.575 38.2095C70.91 37.3921 70.0775 36.8724 69.295 36.8724C68.73 36.8724 68.28 37.1449 67.985 37.604C66.7725 36.0198 65.205 34.9905 63.7375 34.9905C62.555 34.9905 61.655 35.659 61.1525 36.7539C60.4675 36.1333 59.7 35.7599 58.9675 35.7599C57.6825 35.7599 56.8825 36.9103 56.8675 38.5349C56.2275 38.1717 55.5525 37.9497 54.895 37.9143C53.605 37.8412 52.675 38.5021 52.29 39.5794C52.025 39.3977 51.7375 39.2842 51.4575 39.2691C50.7525 39.2287 50.36 39.8241 50.535 40.6187H75.01C74.5075 39.4128 73.1075 38.3583 71.79 38.2221Z" fill="#F5F5F5"/>
<path d="M78.6575 5.25494C78.62 5.24989 78.585 5.24989 78.55 5.24989C78.2175 4.84121 77.8 4.58136 77.41 4.58136C77.1275 4.58136 76.9025 4.71759 76.755 4.94716C76.1475 4.15502 75.365 3.64038 74.6325 3.64038C74.04 3.64038 73.5925 3.97591 73.34 4.52082C72.9975 4.21052 72.6125 4.02384 72.2475 4.02384C71.605 4.02384 71.205 4.59902 71.1975 5.41135C70.8775 5.22971 70.54 5.11871 70.21 5.10105C69.565 5.06321 69.1 5.39621 68.9075 5.93356C68.775 5.84274 68.63 5.78724 68.49 5.77967C68.1375 5.75949 67.9425 6.05717 68.03 6.45576H80.2675C80.0175 5.85283 79.315 5.32557 78.6575 5.25746V5.25494Z" fill="#E6E6E6"/>
<path d="M62.5 93.9999C89.2706 93.9999 110.973 92.7214 110.973 91.1442C110.973 89.567 89.2706 88.2885 62.5 88.2885C35.7294 88.2885 14.0275 89.567 14.0275 91.1442C14.0275 92.7214 35.7294 93.9999 62.5 93.9999Z" fill="#F5F5F5" fill-opacity="0.1"/>
<path d="M67.245 70.9951C67.245 70.9951 67.225 70.9951 67.2175 70.9951H59.545C56.2425 70.9951 53.565 75.367 53.565 80.7581C53.565 86.1492 56.2425 90.5236 59.545 90.5236H67.2175C67.2175 90.5236 67.2375 90.5236 67.245 90.5236C70.5475 90.5236 73.225 86.1517 73.225 80.7581C73.225 75.3645 70.5475 70.9926 67.245 70.9926V70.9951Z" fill="#B8D05B"/>
<path opacity="0.2" d="M67.245 70.9951C67.245 70.9951 67.225 70.9951 67.2175 70.9951H59.545C56.2425 70.9951 53.565 75.367 53.565 80.7581C53.565 86.1492 56.2425 90.5236 59.545 90.5236H67.2175C67.2175 90.5236 67.2375 90.5236 67.245 90.5236C70.5475 90.5236 73.225 86.1517 73.225 80.7581C73.225 75.3645 70.5475 70.9926 67.245 70.9926V70.9951Z" fill="black"/>
<path d="M32.485 70.9951C32.485 70.9951 32.465 70.9951 32.4575 70.9951H24.785C21.4825 70.9951 18.805 75.367 18.805 80.7581C18.805 86.1492 21.4825 90.5236 24.785 90.5236H32.4575C32.4575 90.5236 32.4775 90.5236 32.485 90.5236C35.7875 90.5236 38.465 86.1517 38.465 80.7581C38.465 75.3645 35.7875 70.9926 32.485 70.9926V70.9951Z" fill="#B8D05B"/>
<path opacity="0.2" d="M32.485 70.9951C32.485 70.9951 32.465 70.9951 32.4575 70.9951H24.785C21.4825 70.9951 18.805 75.367 18.805 80.7581C18.805 86.1492 21.4825 90.5236 24.785 90.5236H32.4575C32.4575 90.5236 32.4775 90.5236 32.485 90.5236C35.7875 90.5236 38.465 86.1517 38.465 80.7581C38.465 75.3645 35.7875 70.9926 32.485 70.9926V70.9951Z" fill="black"/>
<path d="M105.977 63.5807L107.732 65.1019C108.562 65.8209 108.925 66.9486 108.672 68.0232L108.272 69.7236L105.98 63.5807H105.977Z" fill="#B8D05B"/>
<path d="M109.16 73.4925C108.855 70.16 107.992 66.9057 106.605 63.8683L106.007 62.559H91.4275L98.985 84.5068C101.642 83.8383 104.107 82.5442 106.172 80.7303L106.347 80.5764C108.36 78.808 109.407 76.1742 109.162 73.4925H109.16Z" fill="#B8D05B"/>
<path opacity="0.5" d="M109.16 73.4925C108.855 70.16 107.992 66.9057 106.605 63.8683L106.007 62.559H91.4275L98.985 84.5068C101.642 83.8383 104.107 82.5442 106.172 80.7303L106.347 80.5764C108.36 78.808 109.407 76.1742 109.162 73.4925H109.16Z" fill="white"/>
<path d="M89.81 90.5236C86.5075 90.5236 83.83 86.1517 83.83 80.7581C83.83 75.3645 86.5075 70.9926 89.81 70.9926H97.4825V90.5236H89.81Z" fill="#B8D05B"/>
<path d="M97.5099 90.5262C100.813 90.5262 103.49 86.154 103.49 80.7607C103.49 75.3673 100.813 70.9951 97.5099 70.9951C94.2072 70.9951 91.5299 75.3673 91.5299 80.7607C91.5299 86.154 94.2072 90.5262 97.5099 90.5262Z" fill="#B8D05B"/>
<path opacity="0.2" d="M97.5099 86.9363C99.8268 86.9363 101.705 84.1714 101.705 80.7606C101.705 77.3499 99.8268 74.585 97.5099 74.585C95.1931 74.585 93.3149 77.3499 93.3149 80.7606C93.3149 84.1714 95.1931 86.9363 97.5099 86.9363Z" fill="black"/>
<path d="M46.16 84.5044L31.7825 61.2169C31.7825 61.2169 43.1575 49.6097 68.01 49.6097C89.5225 49.6097 102.407 56.7794 106.01 62.5565L97.4825 70.9925C89.225 70.9925 89.2775 79.8272 88.145 83.5407C87.97 84.1158 87.45 84.5018 86.8425 84.5018H46.16" fill="#B8D05B"/>
<path opacity="0.5" d="M46.16 84.5044L31.7825 61.2169C31.7825 61.2169 43.1575 49.6097 68.01 49.6097C89.5225 49.6097 102.407 56.7794 106.01 62.5565L97.4825 70.9925C89.225 70.9925 89.2775 79.8272 88.145 83.5407C87.97 84.1158 87.45 84.5018 86.8425 84.5018H46.16" fill="white"/>
<path d="M55.0499 90.5236C51.7474 90.5236 49.0699 86.1517 49.0699 80.7581C49.0699 75.3645 51.7474 70.9926 55.0499 70.9926H62.7224V90.5236H55.0499Z" fill="#B8D05B"/>
<path d="M62.75 90.5262C66.0526 90.5262 68.73 86.154 68.73 80.7607C68.73 75.3673 66.0526 70.9951 62.75 70.9951C59.4473 70.9951 56.77 75.3673 56.77 80.7607C56.77 86.154 59.4473 90.5262 62.75 90.5262Z" fill="#B8D05B"/>
<path opacity="0.2" d="M62.7499 86.9363C65.0668 86.9363 66.9449 84.1714 66.9449 80.7606C66.9449 77.3499 65.0668 74.585 62.7499 74.585C60.4331 74.585 58.5549 77.3499 58.5549 80.7606C58.5549 84.1714 60.4331 86.9363 62.7499 86.9363Z" fill="black"/>
<path d="M52.2225 82.582C52.955 78.2202 57.265 70.9926 62.72 70.9926L68.0075 61.2169H31.78C29.47 61.2169 18.67 65.1549 14.7375 69.1232C11.985 71.9007 11.7 74.6959 11.375 81.8101C11.31 83.2632 12.6325 84.5119 14.2225 84.5119C27.5875 84.517 43.7625 84.5649 49.65 84.5826C50.95 84.5876 52.0275 83.7501 52.2225 82.582Z" fill="#B8D05B"/>
<path opacity="0.5" d="M52.2225 82.582C52.955 78.2202 57.265 70.9926 62.72 70.9926L68.0075 61.2169H31.78C29.47 61.2169 18.67 65.1549 14.7375 69.1232C11.985 71.9007 11.7 74.6959 11.375 81.8101C11.31 83.2632 12.6325 84.5119 14.2225 84.5119C27.5875 84.517 43.7625 84.5649 49.65 84.5826C50.95 84.5876 52.0275 83.7501 52.2225 82.582Z" fill="white"/>
<path opacity="0.3" d="M68.0075 49.6123C43.31 49.6123 32.04 61.0403 31.785 61.2169H56.7725C56.7725 61.2169 67.5175 51.8475 74.6375 49.852C72.53 49.6956 70.3175 49.6123 68.01 49.6123H68.0075Z" fill="#B8D05B"/>
<path opacity="0.7" d="M37.105 71.1918C40.535 69.8825 50.885 66.2018 53.7075 67.158C56.53 68.1141 49.695 71.5299 47.9725 71.984C46.2525 72.4381 45.12 71.5299 42.5425 72.7862C39.965 74.0425 32.9525 72.7786 37.1025 71.1918H37.105Z" fill="#B8D05B"/>
<path opacity="0.2" d="M79.5649 84.638C79.5399 84.638 79.5124 84.6305 79.4899 84.6153C79.4299 84.575 79.4149 84.4917 79.4549 84.4312C79.5049 84.3555 84.5724 76.6586 84.5724 61.2194C84.5724 61.1462 84.6324 61.0857 84.7049 61.0857C84.7774 61.0857 84.8374 61.1462 84.8374 61.2194C84.8374 76.7494 79.7274 84.5043 79.6749 84.58C79.6499 84.6179 79.6074 84.638 79.5649 84.638Z" fill="#B8D05B"/>
<path opacity="0.2" d="M24.685 72.7231C24.685 72.7231 24.665 72.7231 24.655 72.7206L17.7725 71.1237C17.7025 71.1061 17.6575 71.0354 17.6725 70.9648C17.6875 70.8941 17.76 70.8487 17.83 70.8639L24.69 72.4557L36.0325 71.1515C36.105 71.1439 36.17 71.1944 36.1775 71.2675C36.185 71.3407 36.135 71.4063 36.0625 71.4138L24.6975 72.7206C24.6975 72.7206 24.6875 72.7206 24.6825 72.7206L24.685 72.7231Z" fill="#B8D05B"/>
<path opacity="0.2" d="M97.4825 71.1288C97.4475 71.1288 97.415 71.1161 97.3875 71.0884C97.3375 71.0354 97.3375 70.9522 97.3875 70.8992C99.7925 68.5202 101.072 62.9652 101.072 59.8672C101.072 59.7941 101.132 59.7335 101.205 59.7335C101.277 59.7335 101.337 59.7941 101.337 59.8672C101.337 63.0106 100.03 68.659 97.575 71.0884C97.55 71.1136 97.515 71.1262 97.4825 71.1262V71.1288Z" fill="#B8D05B"/>
<path d="M78.1149 63.8733H81.5424C81.8074 63.8733 82.0249 63.6538 82.0249 63.3864C82.0249 63.119 81.8074 62.8995 81.5424 62.8995H78.1149C77.8499 62.8995 77.6324 63.119 77.6324 63.3864C77.6324 63.6538 77.8499 63.8733 78.1149 63.8733Z" fill="#B8D05B"/>
<path d="M93.1524 63.8733H96.5774C96.8424 63.8733 97.0599 63.6538 97.0599 63.3864C97.0599 63.119 96.8424 62.8995 96.5774 62.8995H93.1524C92.8874 62.8995 92.6699 63.119 92.6699 63.3864C92.6699 63.6538 92.8874 63.8733 93.1524 63.8733Z" fill="#B8D05B"/>
<path opacity="0.7" d="M17.56 71.323C16.8525 70.8891 15.6975 70.2029 14.3875 69.499C13.6375 70.3189 13.0925 71.159 12.6925 72.1252C13.0875 72.2059 13.54 72.3926 14.1025 72.8291C15.7725 74.1257 20.245 72.9779 17.56 71.323Z" fill="#B8D05B"/>
<path opacity="0.3" d="M61.1899 61.2195H96.1124C97.8974 61.2195 99.6524 60.7553 101.207 59.8698C101.207 59.8698 95.5574 54.6881 84.1799 52.4555C79.5049 51.5372 75.0724 51.1815 73.7099 51.2698C70.4599 52.9978 65.4799 56.6331 61.1899 61.2195Z" fill="#B8D05B"/>
<path d="M40.2424 82.8898H15.4149C14.8174 82.8898 14.4999 82.1784 14.8949 81.7268L15.5374 80.9952C15.6699 80.8464 15.8574 80.7606 16.0574 80.7606H39.6024C39.7999 80.7606 39.99 80.8464 40.1224 80.9952L40.7649 81.7268C41.1599 82.1784 40.8424 82.8898 40.2449 82.8898H40.2424Z" fill="#B8D05B"/>
<path d="M105.375 71.2322L103.81 71.5375V67.2589L105.375 67.5642C105.587 67.6045 105.745 67.8946 105.745 68.2352V70.5587C105.745 70.9018 105.585 71.1894 105.375 71.2297V71.2322Z" fill="#B8D05B"/>
<path d="M79.0225 92.4586C77.78 92.4586 77.095 92.1457 77.095 91.5806C77.095 91.0988 77.6275 90.7431 78.725 90.4959C79.79 90.2537 81.335 90.1275 83.195 90.1275H103.255C104.472 90.1275 105.39 89.7693 106.057 89.0327C107.865 87.0372 107.46 82.5416 107.165 79.2596C107.065 78.1445 106.97 77.0925 106.97 76.2701C106.97 75.0415 107.13 73.9618 107.27 73.0107C107.457 71.7367 107.605 70.7327 107.202 70.2584C106.937 69.9481 106.385 69.7993 105.51 69.7993V69.0021C106.642 69.0021 107.37 69.2367 107.8 69.7387C108.44 70.488 108.267 71.6535 108.05 73.1293C107.912 74.0551 107.757 75.1046 107.757 76.2726C107.757 77.0572 107.85 78.0915 107.95 79.1889C108.275 82.8091 108.682 87.3147 106.64 89.5725C105.825 90.4732 104.687 90.9273 103.252 90.9273H83.1925C79.955 90.9273 78.515 91.3107 78.0375 91.5504C78.22 91.6059 78.5325 91.6614 79.02 91.6614V92.4586H79.0225Z" fill="#899554"/>
<path d="M105.51 68.0132V70.7832C106.268 70.7832 106.883 70.1626 106.883 69.3982C106.883 68.6338 106.268 68.0132 105.51 68.0132Z" fill="#899554"/>
<path d="M93.6999 27.9873H83.1949V91.7144H93.6999V27.9873Z" fill="#263238"/>
<path d="M96.585 27.2028H84.095V27.9873H96.585V27.2028Z" fill="#263238"/>
<path opacity="0.4" d="M96.5849 27.2028H93.7024V27.9873H96.5849V27.2028Z" fill="black"/>
<path d="M90.1799 33.6332H88.4124L89.9574 31.1635H88.0149L86.7174 34.6524H88.3299L87.3474 37.8033L90.1799 33.6332Z" fill="white"/>
<path opacity="0.5" d="M90.0107 69.8306C90.8728 68.9607 90.8728 67.5503 90.0107 66.6804C89.1486 65.8104 87.7509 65.8104 86.8888 66.6804C86.0267 67.5503 86.0267 68.9607 86.8888 69.8306C87.7509 70.7006 89.1486 70.7006 90.0107 69.8306Z" fill="#B8D05B"/>
<path d="M79.0224 92.4586C78.8049 92.4586 78.6274 92.2795 78.6274 92.06C78.6274 91.8405 78.8049 91.6614 79.0224 91.6614C80.2949 91.6614 81.1724 91.3436 81.7074 90.6902C82.9374 89.1917 82.3249 85.96 81.6774 82.5392C81.2474 80.2687 80.8024 77.92 80.8024 75.7379C80.8024 70.6571 83.5174 67.8568 88.4499 67.8568C88.6674 67.8568 88.8449 68.0359 88.8449 68.2554C88.8449 68.4749 88.6674 68.654 88.4499 68.654C85.3224 68.654 81.5949 69.8826 81.5949 75.7379C81.5949 77.8444 82.0324 80.1552 82.4549 82.3878C83.1374 85.9979 83.7849 89.4086 82.3174 91.1972C81.6224 92.0449 80.5449 92.4586 79.0224 92.4586Z" fill="#B8D05B"/>
<path opacity="0.5" d="M92.3924 48.197H84.5074V64.277H92.3924V48.197Z" fill="#B8D05B"/>
<path opacity="0.5" d="M84.5074 48.197V64.277L87.3299 50.4372L84.5074 48.197Z" fill="#B8D05B"/>
<path d="M90.8949 53.621L91.0549 52.8364H88.9024L88.7424 53.621H87.9099L86.3849 61.0934H90.2224L91.7474 53.621H90.8949Z" fill="#B8D05B"/>
<path opacity="0.4" d="M90.6949 56.2723L89.91 60.122C89.855 60.3945 89.6174 60.5887 89.3424 60.5887H87.4274C87.2049 60.5887 87.0399 60.3844 87.0849 60.1649L87.8699 56.3152C87.9249 56.0428 88.1624 55.8485 88.4374 55.8485H90.3524C90.5749 55.8485 90.7399 56.0529 90.6949 56.2723Z" fill="white"/>
<path opacity="0.4" d="M84.5074 48.197H92.3924V50.4372H87.3299L84.5074 48.197Z" fill="#88974C"/>
<path d="M93.7 91.7119H97.48L97.48 27.9849H93.7L93.7 91.7119Z" fill="#263238"/>
<path opacity="0.4" d="M93.7 91.7119H97.48L97.48 27.9849H93.7L93.7 91.7119Z" fill="black"/>
</g>
<defs>
<clipPath id="clip0_63_2406">
<rect width="125" height="94" fill="white"/>
</clipPath>
</defs>
</svg>
