<svg width="110" height="120" viewBox="0 0 110 120" fill="none" xmlns="http://www.w3.org/2000/svg">
<g clip-path="url(#clip0_5_485)">
<path d="M97.9686 120H12.1039V46.9733L55.0294 19.5693L97.9686 46.9733V120Z" fill="#B9D15A"/>
<path opacity="0.2" d="M97.9686 120H12.1039V46.9733L55.0294 19.5693L97.9686 46.9733V120Z" fill="black"/>
<path d="M93.1297 16.0965H16.9495V114.419H93.1297V16.0965Z" fill="#EBEBEB"/>
<path d="M50.3961 74.9216L32.9531 57.1645L38.8131 51.3488L49.0048 61.7192L70.1762 28.3549L77.1192 32.8062L50.3961 74.9216Z" fill="#B9D15A"/>
<path d="M97.9686 65.2541V120H12.1039V65.2541C15.7912 67.3557 19.4169 69.5607 23.0631 71.7106C26.7025 73.9018 30.3351 76.093 33.947 78.3256C37.9702 80.7855 41.9934 83.2937 46.0029 85.8157C46.044 85.7881 46.092 85.7606 46.1331 85.7399C46.092 85.7674 46.0714 85.8019 46.0303 85.8295C49.0323 87.7106 52.0411 89.5986 55.0431 91.4935C58.0313 89.5986 61.0402 87.6968 64.0422 85.8295C64.001 85.8019 63.9805 85.7674 63.9394 85.7399C63.9805 85.7674 64.0285 85.795 64.0696 85.8019C68.0791 83.2868 72.0885 80.7855 76.1254 78.3118C79.7374 76.093 83.3562 73.888 86.9956 71.7106C90.6555 69.5607 94.2812 67.3557 97.9686 65.2541Z" fill="#B9D15A"/>
<g opacity="0.2">
<path d="M97.9686 65.2541C94.5006 67.7072 90.964 70.05 87.4754 72.4617C83.9525 74.8183 80.4228 77.1817 76.8725 79.5108C73.1715 81.9501 69.4567 84.3618 65.7419 86.7597C65.6254 86.8355 65.5226 86.9182 65.4061 86.994C62.1162 89.1094 58.8196 91.2179 55.516 93.3333L55.0294 93.6296L54.5496 93.3333C51.2461 91.2179 47.9631 89.1094 44.6733 86.9802C44.5568 86.9182 44.4402 86.8355 44.3237 86.7597C40.5952 84.3618 36.8805 81.9501 33.1794 79.497C29.6428 77.1749 26.1131 74.8183 22.5902 72.4548C19.0948 70.0431 15.5651 67.7003 12.097 65.2472C15.7844 67.3488 19.4101 69.5538 23.0563 71.7037C26.6957 73.8949 30.3282 76.0861 33.9402 78.3187C37.9634 80.7786 41.9866 83.2868 45.9961 85.8088C45.9961 85.8088 46.0052 85.8134 46.0235 85.8226C49.0254 87.7037 52.0343 89.5917 55.0362 91.4867C58.0245 89.5917 61.0333 87.6899 64.0353 85.8226C64.0353 85.8226 64.0445 85.8134 64.0627 85.795C68.0722 83.2799 72.0817 80.7786 76.1186 78.3049C79.7306 76.0861 83.3494 73.8811 86.9888 71.7037C90.6487 69.5538 94.2744 67.3488 97.9617 65.2472L97.9686 65.2541Z" fill="black"/>
<path d="M46.1332 85.7399C46.0921 85.7674 46.0715 85.8019 46.0304 85.8295C45.578 86.2153 45.1257 86.6081 44.6733 86.9802C42.5212 88.8062 40.3143 90.5564 38.0731 92.2584C35.3384 94.36 32.5421 96.3652 29.732 98.3635C26.9082 100.32 24.0707 102.264 21.1716 104.131C18.2724 105.998 15.3458 107.824 12.3096 109.499C14.914 107.204 17.6213 105.068 20.356 102.98C23.1043 100.879 25.9007 98.8734 28.6971 96.8751C31.5345 94.9044 34.372 92.9612 37.2712 91.0939C39.5809 89.6055 41.9249 88.1378 44.3238 86.7666C44.8789 86.4427 45.4341 86.1327 46.003 85.8226C46.0441 85.795 46.0921 85.7674 46.1332 85.7468V85.7399Z" fill="black"/>
<path d="M97.7629 109.499C94.7336 107.824 91.7933 105.998 88.901 104.131C86.0018 102.264 83.1643 100.32 80.3268 98.3635C77.5168 96.3652 74.7204 94.36 71.9857 92.2584C69.7582 90.5633 67.5513 88.82 65.406 86.994C64.94 86.6081 64.4876 86.2153 64.0421 85.8295C64.001 85.8019 63.9805 85.7674 63.9393 85.7399C63.9805 85.7674 64.0284 85.795 64.0696 85.8019C64.6384 86.1258 65.1936 86.4358 65.7487 86.7597C68.1476 88.1309 70.4779 89.5986 72.8013 91.087C75.7005 92.9544 78.538 94.8975 81.3617 96.8682C84.1718 98.8665 86.9682 100.872 89.7029 102.973C92.4512 105.061 95.1585 107.197 97.7629 109.492V109.499Z" fill="black"/>
</g>
<path d="M18.2997 11.404C18.0256 9.50215 17.9639 7.60034 17.9502 5.69854C17.957 3.79673 18.0187 1.89492 18.286 -0.00689125C18.5602 1.89492 18.6219 3.79673 18.6356 5.69854C18.6287 7.60034 18.567 9.50215 18.2997 11.404Z" fill="#263238"/>
<path d="M13.4815 13.2162C11.9531 12.0655 10.5687 10.7631 9.22531 9.43325C7.89567 8.08269 6.60029 6.69767 5.44885 5.16107C6.97726 6.3118 8.36173 7.60723 9.70508 8.94401C11.0347 10.2946 12.3301 11.6796 13.4747 13.2162H13.4815Z" fill="#263238"/>
<path d="M11.3431 17.9225C9.45144 18.1981 7.55978 18.2601 5.66813 18.2739C3.77647 18.267 1.88482 18.205 -0.00683594 17.9363C1.88482 17.6606 3.77647 17.5986 5.66813 17.5848C7.55978 17.5917 9.45144 17.6537 11.3431 17.9225Z" fill="#263238"/>
<path d="M13.1457 22.7666C12.0011 24.3032 10.7057 25.6951 9.38292 27.0457C8.03957 28.3824 6.66195 29.6848 5.13354 30.8355C6.27813 29.2989 7.56665 27.907 8.89629 26.5564C10.2396 25.2196 11.6173 23.9173 13.1457 22.7597V22.7666Z" fill="#263238"/>
<path d="M91.2655 11.404C90.9982 9.50215 90.9365 7.60034 90.9297 5.69854C90.9434 3.79673 91.0051 1.89492 91.2792 -0.00689125C91.5465 1.89492 91.6082 3.79673 91.6151 5.69854C91.6014 7.60034 91.5397 9.50215 91.2655 11.404Z" fill="#263238"/>
<path d="M96.0839 13.2162C97.2285 11.6796 98.5238 10.2946 99.8535 8.94401C101.197 7.60723 102.581 6.3118 104.11 5.16107C102.965 6.69767 101.67 8.08269 100.34 9.43325C98.9967 10.77 97.6123 12.0655 96.0839 13.2162Z" fill="#263238"/>
<path d="M98.2153 17.9225C100.107 17.6537 101.999 17.5917 103.89 17.5848C105.782 17.5986 107.674 17.6606 109.565 17.9363C107.674 18.205 105.782 18.267 103.89 18.2739C101.999 18.2601 100.107 18.1981 98.2153 17.9225Z" fill="#263238"/>
<path d="M96.4197 22.7666C97.9481 23.9173 99.3257 25.2196 100.669 26.5633C101.999 27.9139 103.287 29.3058 104.432 30.8424C102.903 29.6916 101.526 28.3893 100.182 27.0525C98.8528 25.702 97.5643 24.3101 96.4197 22.7735V22.7666Z" fill="#263238"/>
</g>
<defs>
<clipPath id="clip0_5_485">
<rect width="109.565" height="120" fill="white"/>
</clipPath>
</defs>
</svg>
