<svg width="11" height="12" viewBox="0 0 11 12" fill="none" xmlns="http://www.w3.org/2000/svg">
<g clip-path="url(#clip0_5_96)">
<path d="M1.58756 12.0001C1.14976 11.9224 0.770944 11.7304 0.4723 11.3883C0.174515 11.0471 0.00529349 10.6487 0.00386183 10.1887C-0.000146814 8.86653 -0.0018648 7.54437 0.00386183 6.22221C0.00787047 5.34565 0.693062 4.55705 1.53803 4.4304C1.7774 4.39463 2.01706 4.41164 2.25643 4.41047C2.35207 4.40988 2.38013 4.37792 2.37955 4.28235C2.37641 3.75965 2.36925 3.23694 2.38156 2.71452C2.40418 1.74005 2.83339 0.983401 3.62395 0.459228C4.87808 -0.37218 6.52334 -0.0435451 7.39322 1.19682C7.70761 1.64507 7.87512 2.15048 7.88056 2.70514C7.88542 3.22785 7.88514 3.75056 7.87998 4.27297C7.87884 4.38349 7.91492 4.40988 8.01742 4.41047C8.30204 4.41193 8.58808 4.38437 8.87069 4.45503C9.13812 4.52187 9.30821 4.75053 9.26239 4.99826C9.20885 5.28907 8.98207 5.44972 8.69231 5.39871C8.54542 5.37292 8.39853 5.36002 8.24935 5.36031C6.15026 5.36119 4.05144 5.3609 1.95235 5.3609C1.63366 5.3609 1.35134 5.44591 1.14031 5.70976C0.993137 5.89386 0.934153 6.10934 0.93358 6.33976C0.930717 7.58394 0.930431 8.82812 0.933294 10.0723C0.934439 10.5449 1.18756 10.894 1.60904 11.0151C1.72643 11.0488 1.8487 11.0559 1.97067 11.0559C3.81064 11.0559 5.65061 11.0564 7.49057 11.0547C7.69702 11.0547 7.85421 11.1315 7.94784 11.3218C8.06009 11.5507 7.9759 11.8213 7.75801 11.9488C7.72823 11.9661 7.69845 11.9831 7.66838 12.0001H1.58756ZM5.11946 4.40812C5.68697 4.40812 6.25448 4.40607 6.8217 4.41017C6.92106 4.41105 6.9537 4.38203 6.95256 4.27796C6.94769 3.82561 6.95485 3.37326 6.94826 2.92091C6.9454 2.72684 6.9391 2.53188 6.89271 2.34074C6.69572 1.52663 5.90974 0.903661 4.99176 0.975193C4.03112 1.04995 3.31557 1.82067 3.31042 2.8057C3.30784 3.29322 3.31328 3.78046 3.30756 4.26799C3.30612 4.38408 3.34449 4.41135 3.45158 4.41047C4.00764 4.40577 4.56369 4.40812 5.11975 4.40812H5.11946Z" fill="#B1D34F"/>
<path d="M9.22331 12C9.02746 11.9059 8.89288 11.7678 8.89517 11.5283C8.89746 11.3008 9.05523 11.1012 9.26683 11.0616C9.49647 11.0188 9.71837 11.1463 9.79683 11.3662C9.87471 11.584 9.7911 11.825 9.5964 11.9431C9.56375 11.9628 9.53025 11.9812 9.49733 12.0003H9.22302L9.22331 12Z" fill="#B1D34F"/>
<path d="M8.89716 9.74499C8.86595 9.32841 8.99079 8.95991 9.30404 8.66323C9.42372 8.54977 9.57118 8.48557 9.70862 8.4026C9.94628 8.25896 10.0671 8.03908 10.0522 7.76117C10.035 7.43869 9.86983 7.21061 9.56431 7.11064C9.15572 6.97696 8.7328 7.25605 8.67783 7.68817C8.67038 7.74621 8.66437 7.80426 8.65664 7.86201C8.62371 8.10358 8.41183 8.27391 8.15928 8.26247C7.92936 8.25192 7.73866 8.05228 7.73007 7.81335C7.698 6.91657 8.43702 6.12591 9.3152 6.1177C10.1742 6.10949 10.8494 6.6964 10.9834 7.56768C11.0824 8.21264 10.7348 8.94994 10.1619 9.23694C9.90275 9.36681 9.79395 9.54037 9.82516 9.82444C9.83346 9.90125 9.82888 9.9804 9.82401 10.0581C9.80941 10.297 9.60526 10.4858 9.36359 10.4864C9.12107 10.487 8.91434 10.3014 8.89859 10.0625C8.892 9.96164 8.89744 9.85991 8.89744 9.74499H8.89716Z" fill="#B1D34F"/>
<path d="M2.56436 8.59024C2.30351 8.58877 2.10508 8.3818 2.10565 8.11268C2.10623 7.84033 2.31095 7.63541 2.57953 7.63893C2.83694 7.64215 3.03795 7.85528 3.0348 8.12235C3.03165 8.38708 2.82578 8.592 2.56436 8.59053V8.59024Z" fill="#B1D34F"/>
<path d="M4.2924 8.59023C4.0284 8.59287 3.82338 8.39147 3.82023 8.12645C3.8168 7.8497 4.01494 7.6398 4.28066 7.63892C4.54179 7.63775 4.74709 7.84355 4.74938 8.10857C4.75167 8.37534 4.55038 8.58789 4.2924 8.59023Z" fill="#B1D34F"/>
<path d="M5.99207 8.59023C5.73179 8.58818 5.53365 8.38062 5.53479 8.11121C5.53565 7.83915 5.74095 7.63511 6.01011 7.63892C6.26723 7.64244 6.46766 7.85674 6.46394 8.12381C6.46022 8.38824 6.25377 8.59229 5.99207 8.59023Z" fill="#B1D34F"/>
</g>
<defs>
<clipPath id="clip0_5_96">
<rect width="11" height="12" fill="white"/>
</clipPath>
</defs>
</svg>
