<svg width="289" height="197" viewBox="0 0 289 197" fill="none" xmlns="http://www.w3.org/2000/svg">
<g clip-path="url(#clip0_5_436)">
<g opacity="0.4">
<path d="M20.5152 107.859L0.00476074 166.693L87.6328 197.004L108.143 138.17L20.5152 107.859Z" fill="#EBEBEB"/>
<path d="M108.139 138.166C108.139 138.166 107.775 138.365 107.052 138.665C106.249 138.988 105.191 139.419 103.87 139.952C101.008 141.069 97.0068 142.628 92.101 144.538C82.056 148.365 68.3003 153.609 53.0649 159.414L52.7462 159.539L52.5641 159.25C52.4218 159.029 52.2739 158.785 52.1202 158.547C43.3557 144.618 35.4222 132.01 29.6228 122.798C26.8171 118.262 24.5235 114.56 22.8901 111.913C22.1446 110.671 21.547 109.685 21.0974 108.931C20.6933 108.245 20.4941 107.877 20.5226 107.86C20.5453 107.843 20.7957 108.183 21.2454 108.84C21.7291 109.572 22.3722 110.535 23.1747 111.737C24.8707 114.351 27.2325 118.002 30.135 122.48C35.9856 131.664 43.9931 144.221 52.8373 158.099C52.991 158.337 53.1446 158.581 53.2812 158.802L52.7747 158.632C68.0442 152.917 81.8284 147.758 91.8961 143.989C96.8418 142.18 100.871 140.706 103.762 139.652C105.105 139.181 106.181 138.801 107.001 138.512C107.746 138.263 108.139 138.144 108.15 138.166H108.139Z" fill="#E0E0E0"/>
<path d="M2.83027e-05 166.693C-0.119487 166.495 9.2824 160.707 20.9949 153.773C32.7131 146.834 42.3028 141.375 42.4224 141.574C42.5419 141.772 33.14 147.554 21.4275 154.493C9.71494 161.432 0.119544 166.892 2.83027e-05 166.693Z" fill="#E0E0E0"/>
<path d="M71.8062 150.91C72.0281 150.837 75.7445 161.092 80.1153 173.819C84.4862 186.552 87.8497 196.926 87.6277 197C87.4058 197.074 83.6894 186.818 79.3186 174.091C74.9477 161.364 71.5842 150.984 71.8062 150.91Z" fill="#E0E0E0"/>
</g>
<g opacity="0.4">
<path d="M279.104 92.5612L192.394 107.201L202.3 165.42L289.01 150.78L279.104 92.5612Z" fill="#E0E0E0"/>
<path d="M279.097 92.5817C279.097 92.5817 278.887 92.9105 278.42 93.4944C277.902 94.1293 277.219 94.9627 276.366 96.0115C274.499 98.2394 271.887 101.352 268.688 105.173C262.092 112.922 253.06 123.529 243.061 135.275L242.85 135.525L242.565 135.366C242.349 135.247 242.11 135.117 241.871 134.986C228.206 127.395 215.839 120.525 206.802 115.496C202.391 113.002 198.794 110.966 196.216 109.51C195.027 108.818 194.076 108.268 193.359 107.848C192.71 107.463 192.375 107.248 192.392 107.219C192.403 107.197 192.767 107.361 193.439 107.707C194.179 108.092 195.152 108.602 196.37 109.237C198.976 110.638 202.613 112.599 207.075 115.003C216.147 119.975 228.548 126.772 242.258 134.289C242.497 134.419 242.73 134.55 242.952 134.669L242.457 134.76C252.531 123.07 261.62 112.52 268.261 104.81C271.545 101.057 274.22 98.0013 276.132 95.8131C277.031 94.8096 277.754 94.0046 278.301 93.3924C278.801 92.8481 279.075 92.5647 279.097 92.5817Z" fill="#EBEBEB"/>
<path d="M202.294 165.435C202.107 165.321 207.269 156.245 213.825 145.156C220.387 134.068 225.856 125.167 226.044 125.281C226.232 125.394 221.07 134.47 214.513 145.565C207.957 156.653 202.488 165.554 202.294 165.44V165.435Z" fill="#EBEBEB"/>
<path d="M254.739 119.68C254.887 119.515 262.678 126.352 272.137 134.941C281.602 143.535 289.148 150.633 289 150.791C288.852 150.956 281.061 144.119 271.602 135.525C262.143 126.936 254.591 119.838 254.739 119.674V119.68Z" fill="#EBEBEB"/>
</g>
<g opacity="0.4">
<path d="M192.426 0.00734901L176.805 39.5697L235.732 62.6557L251.353 23.0933L192.426 0.00734901Z" fill="#EBEBEB"/>
<path d="M251.341 23.6287C251.341 23.6287 251.085 23.7534 250.584 23.9405C250.027 24.1389 249.292 24.3997 248.376 24.7285C246.39 25.4088 243.624 26.3612 240.221 27.5347C233.26 29.8703 223.733 33.0677 213.187 36.6108L212.965 36.6845L212.846 36.4804C212.755 36.3274 212.658 36.1573 212.561 35.9872C206.967 26.2478 201.907 17.4324 198.208 10.9867C196.421 7.81199 194.958 5.2269 193.917 3.37878C193.444 2.51141 193.063 1.81979 192.773 1.29823C192.517 0.816363 192.392 0.561255 192.409 0.549917C192.426 0.538579 192.585 0.776679 192.875 1.23587C193.188 1.74609 193.598 2.42071 194.11 3.2654C195.192 5.09651 196.706 7.64759 198.561 10.7826C202.3 17.2056 207.411 25.9927 213.062 35.7038C213.159 35.8739 213.256 36.0383 213.347 36.197L213.005 36.0666C223.579 32.5858 233.124 29.4508 240.095 27.1548C243.521 26.055 246.31 25.1593 248.308 24.5187C249.235 24.2353 249.981 24.0028 250.55 23.8328C251.062 23.6797 251.336 23.6117 251.341 23.6287Z" fill="#E0E0E0"/>
<path d="M176.792 40.1143C176.718 39.9726 183.291 36.2877 191.47 31.8772C199.654 27.4666 206.346 24.0028 206.42 24.1445C206.494 24.2863 199.927 27.9712 191.743 32.3817C183.565 36.7922 176.866 40.2504 176.792 40.1143Z" fill="#E0E0E0"/>
<path d="M226.209 31.3216C226.363 31.2762 228.616 38.3739 231.24 47.178C233.869 55.982 235.873 63.1534 235.725 63.1988C235.571 63.2441 233.317 56.1464 230.694 47.3424C228.064 38.544 226.061 31.3726 226.215 31.3273L226.209 31.3216Z" fill="#E0E0E0"/>
</g>
<path d="M77.7079 95.2346L211.947 94.2652L215.686 185.174L76.6892 183.893L77.7079 95.2346Z" fill="#B9D15A"/>
<path d="M77.7079 95.2346L141.239 44.026C143.931 41.8604 147.778 41.8717 150.453 44.0543L211.947 94.2596" fill="#B9D15A"/>
<g opacity="0.3">
<path d="M77.7079 95.2346L141.239 44.026C143.931 41.8604 147.778 41.8717 150.453 44.0543L211.947 94.2596" fill="black"/>
</g>
<path d="M76.6892 183.893C76.5241 183.734 87.2691 172.05 100.689 157.793C114.115 143.529 125.133 132.101 125.298 132.254C125.463 132.412 114.724 144.096 101.292 158.36C87.8724 172.617 76.8542 184.052 76.6835 183.893H76.6892Z" fill="#263238"/>
<path d="M215.686 185.174C215.515 185.327 205.049 173.876 192.312 159.601C179.569 145.321 169.388 133.626 169.558 133.472C169.729 133.319 180.195 144.771 192.932 159.051C205.669 173.326 215.856 185.027 215.686 185.174Z" fill="#263238"/>
<g opacity="0.5">
<path d="M211.947 94.2652L144.54 147.906L77.7079 95.2346" fill="black"/>
</g>
<path d="M84.469 100.201L84.2584 58.4424L201.805 57.0535L203.125 100.994L144.534 147.203L84.469 100.201Z" fill="#FAFAFA"/>
<path d="M84.469 100.201C84.469 100.201 84.8503 100.484 85.5731 101.04C86.2959 101.601 87.3658 102.429 88.7602 103.511C91.5546 105.688 95.6522 108.88 100.888 112.962C111.354 121.137 126.373 132.866 144.608 147.101H144.46C161.34 133.784 181.368 117.979 203.04 100.875L202.983 100.994C202.732 92.6098 202.465 83.8171 202.192 74.8657C202.01 68.8395 201.833 62.8869 201.657 57.0535L201.805 57.1952C154.437 57.7338 112.652 58.2043 84.2584 58.5274L84.3495 58.4311C84.395 71.5719 84.4292 82.003 84.4576 89.1574C84.4633 92.7346 84.469 95.4897 84.4747 97.3549C84.4747 98.2846 84.4747 98.9932 84.4747 99.4694C84.4747 99.9456 84.469 100.189 84.469 100.189C84.469 100.189 84.4576 99.9513 84.4519 99.4808C84.4519 99.0046 84.4405 98.3016 84.4292 97.3719C84.4121 95.5067 84.395 92.7572 84.3666 89.1857C84.321 82.0257 84.2527 71.5776 84.1674 58.4254V58.329H84.2641C112.652 57.9832 154.437 57.473 201.805 56.8891H201.947V57.0308C202.129 62.8699 202.306 68.8225 202.488 74.843C202.755 83.7945 203.023 92.5872 203.273 100.972V101.045L203.216 101.091C181.533 118.177 161.494 133.966 144.608 147.277L144.534 147.333L144.46 147.277C126.243 132.991 111.235 121.222 100.774 113.024C95.5555 108.925 91.4749 105.717 88.6976 103.534C87.3146 102.446 86.256 101.607 85.5389 101.04C84.8275 100.479 84.469 100.184 84.469 100.184V100.201Z" fill="#263238"/>
<path d="M183.223 78.08C183.223 78.1594 165.25 78.3352 143.077 78.4712C120.899 78.6073 102.926 78.6469 102.926 78.5676C102.926 78.4882 120.899 78.3125 143.077 78.1764C165.244 78.0404 183.223 78.0007 183.223 78.08Z" fill="#263238"/>
<path d="M183.223 89.8774C183.223 89.9567 165.25 90.1325 143.077 90.2685C120.899 90.4046 102.926 90.4443 102.926 90.3649C102.926 90.2855 120.899 90.1098 143.077 89.9738C165.244 89.8377 183.223 89.798 183.223 89.8774Z" fill="#263238"/>
<path d="M183.223 103.477C183.223 103.557 165.25 103.733 143.077 103.869C120.899 104.005 102.926 104.044 102.926 103.965C102.926 103.886 120.899 103.71 143.077 103.574C165.244 103.438 183.223 103.398 183.223 103.477Z" fill="#263238"/>
<path d="M183.223 117.072C183.223 117.151 166.075 117.321 144.921 117.452C123.761 117.582 106.614 117.616 106.614 117.537C106.614 117.457 123.761 117.287 144.915 117.157C166.064 117.027 183.217 116.993 183.217 117.072H183.223Z" fill="#263238"/>
<path d="M168.193 129.005C168.193 129.005 168.033 129.028 167.72 129.039C167.384 129.051 166.935 129.062 166.371 129.073C165.171 129.09 163.48 129.119 161.403 129.153C157.186 129.215 151.404 129.294 145.018 129.385C138.615 129.493 132.822 129.527 128.627 129.532C126.55 129.532 124.865 129.521 123.659 129.521C123.095 129.515 122.646 129.504 122.31 129.504C122.003 129.498 121.838 129.487 121.838 129.476C121.838 129.464 121.997 129.453 122.31 129.442C122.646 129.43 123.095 129.419 123.659 129.408C124.86 129.391 126.55 129.362 128.627 129.328C132.844 129.266 138.627 129.187 145.012 129.096C151.409 128.988 157.203 128.954 161.397 128.949C163.475 128.949 165.159 128.96 166.366 128.96C166.929 128.966 167.379 128.971 167.715 128.977C168.022 128.983 168.187 128.994 168.187 129.005H168.193Z" fill="#263238"/>
<path d="M153.06 140.479C153.06 140.559 149.229 140.627 144.5 140.627C139.771 140.627 135.94 140.559 135.94 140.479C135.94 140.4 139.771 140.332 144.5 140.332C149.229 140.332 153.06 140.4 153.06 140.479Z" fill="#263238"/>
<path d="M192.625 131.216C200.467 131.216 206.825 124.884 206.825 117.072C206.825 109.26 200.467 102.928 192.625 102.928C184.783 102.928 178.425 109.26 178.425 117.072C178.425 124.884 184.783 131.216 192.625 131.216Z" fill="#263238"/>
<path d="M188.926 131.216C196.768 131.216 203.125 124.884 203.125 117.072C203.125 109.26 196.768 102.928 188.926 102.928C181.083 102.928 174.726 109.26 174.726 117.072C174.726 124.884 181.083 131.216 188.926 131.216Z" fill="#455A64"/>
<path d="M190.735 110.49V122.248H188.544V112.321H186.046V110.49H190.735Z" fill="#EBEBEB"/>
<path d="M85.391 39.366H98.3784L96.6255 37.3535V32.5404C96.6255 29.9383 94.5026 27.8294 91.8904 27.8294C89.2781 27.8294 87.161 29.9383 87.161 32.5461V37.1267L85.3967 39.3717L85.391 39.366Z" fill="#B9D15A"/>
<path d="M90.0692 38.7311C90.0977 39.485 90.5985 40.1993 91.2985 40.4941C91.9985 40.7833 92.8579 40.6359 93.4213 40.1313C93.9848 39.6211 94.2124 38.7821 93.9905 38.0621" fill="#B9D15A"/>
<path d="M92.6075 25.868H91.3326V28.5664H92.6075V25.868Z" fill="#B9D15A"/>
<path d="M110.814 30.5166C110.814 30.5166 110.774 30.4032 110.723 30.1764C110.666 29.9327 110.592 29.6039 110.495 29.1787C110.421 28.7365 110.239 28.2093 110.034 27.5857C109.92 27.2795 109.846 26.9281 109.687 26.5879C109.533 26.2421 109.374 25.8736 109.203 25.4881C108.469 23.9631 107.405 22.1547 105.76 20.42C104.127 18.6909 101.924 17.0469 99.2036 15.9244C97.8605 15.3178 96.358 14.9607 94.7986 14.6772C93.2222 14.4901 91.566 14.3654 89.87 14.5979C89.0164 14.6489 88.1741 14.87 87.309 15.04C86.8765 15.1307 86.461 15.2951 86.0342 15.4199C85.6073 15.5503 85.1748 15.6863 84.765 15.8847C83.0633 16.531 81.4527 17.5514 79.9502 18.7533C76.9282 21.1683 74.5664 24.7965 73.5249 28.9973C73.0013 31.0948 72.8931 33.3454 73.1549 35.5791C73.3655 37.8183 74.0598 40.0406 75.107 42.0871L75.4371 42.7051L75.4826 42.7844L75.4599 42.8695C74.4127 46.2993 73.3826 49.661 72.3866 52.9207L72.1191 52.677C74.9249 51.22 77.6396 49.8084 80.2519 48.4535L80.3543 48.4025L80.4454 48.4705C83.0633 50.4774 86.0626 51.6962 89.005 52.1724C91.9587 52.6486 94.8442 52.3652 97.4166 51.5998C99.989 50.8345 102.243 49.5646 104.064 48.0567C105.897 46.543 107.302 44.797 108.344 43.0679C109.374 41.3218 109.983 39.5814 110.421 38.0394C110.78 36.4748 110.95 35.1029 110.984 33.9804C110.984 33.4191 110.99 32.9203 110.996 32.4894C110.956 32.0642 110.928 31.7014 110.899 31.4066C110.876 31.1288 110.859 30.9077 110.842 30.7433C110.831 30.596 110.831 30.5166 110.836 30.5166C110.836 30.5166 110.854 30.5903 110.876 30.7377C110.899 30.9021 110.928 31.1232 110.962 31.401C110.996 31.7014 111.041 32.0642 111.087 32.4894C111.093 32.9259 111.098 33.4248 111.11 33.9917C111.098 35.1255 110.945 36.5088 110.597 38.0961C110.176 39.6551 109.573 41.4239 108.543 43.1983C107.501 44.9557 106.09 46.7358 104.24 48.2834C102.396 49.8311 100.12 51.1293 97.5076 51.9173C94.9011 52.7053 91.9701 53.0058 88.9594 52.5296C85.9602 52.0534 82.904 50.8232 80.2291 48.7766L80.4226 48.7936C77.816 50.1542 75.1013 51.5658 72.3012 53.0284L71.8915 53.2439L72.0338 52.7847C73.0297 49.525 74.0541 46.1632 75.1013 42.7277L75.1184 42.8922L74.7826 42.2629C73.7184 40.171 73.007 37.8977 72.7907 35.6131C72.5289 33.3341 72.6427 31.0325 73.1777 28.8896C74.2476 24.6037 76.6664 20.9018 79.7511 18.4528C81.2877 17.2283 82.9267 16.1965 84.6626 15.5446C85.0837 15.3462 85.5219 15.2101 85.9545 15.0797C86.3927 14.955 86.8138 14.7849 87.2521 14.6942C88.1285 14.5242 88.9879 14.3031 89.853 14.252C91.5717 14.0253 93.262 14.1557 94.8555 14.3541C96.4434 14.6545 97.9629 15.0287 99.3231 15.6466C102.072 16.8031 104.297 18.4868 105.936 20.2499C107.587 22.0187 108.645 23.8611 109.362 25.4088C109.528 25.8056 109.687 26.1741 109.835 26.5256C109.988 26.8714 110.062 27.2229 110.171 27.5403C110.37 28.1696 110.535 28.7025 110.597 29.156C110.677 29.5869 110.74 29.9213 110.785 30.1651C110.825 30.3919 110.842 30.5109 110.836 30.5109L110.814 30.5166Z" fill="#D8E3BE"/>
</g>
<defs>
<clipPath id="clip0_5_436">
<rect width="289" height="197" fill="white"/>
</clipPath>
</defs>
</svg>
